<svg width="100%" height="100%" preserveAspectRatio="xMidYMid meet" data-original-width="29mm" data-original-height="29mm" version="1.1" viewBox="0 0 29 29" xmlns="http://www.w3.org/2000/svg"><path d="M0,0H1V1H0zM1,0H2V1H1zM2,0H3V1H2zM3,0H4V1H3zM4,0H5V1H4zM5,0H6V1H5zM6,0H7V1H6zM9,0H10V1H9zM11,0H12V1H11zM12,0H13V1H12zM13,0H14V1H13zM16,0H17V1H16zM17,0H18V1H17zM18,0H19V1H18zM19,0H20V1H19zM20,0H21V1H20zM22,0H23V1H22zM23,0H24V1H23zM24,0H25V1H24zM25,0H26V1H25zM26,0H27V1H26zM27,0H28V1H27zM28,0H29V1H28zM0,1H1V2H0zM6,1H7V2H6zM10,1H11V2H10zM11,1H12V2H11zM12,1H13V2H12zM13,1H14V2H13zM14,1H15V2H14zM17,1H18V2H17zM18,1H19V2H18zM19,1H20V2H19zM20,1H21V2H20zM22,1H23V2H22zM28,1H29V2H28zM0,2H1V3H0zM2,2H3V3H2zM3,2H4V3H3zM4,2H5V3H4zM6,2H7V3H6zM8,2H9V3H8zM9,2H10V3H9zM11,2H12V3H11zM12,2H13V3H12zM13,2H14V3H13zM15,2H16V3H15zM20,2H21V3H20zM22,2H23V3H22zM24,2H25V3H24zM25,2H26V3H25zM26,2H27V3H26zM28,2H29V3H28zM0,3H1V4H0zM2,3H3V4H2zM3,3H4V4H3zM4,3H5V4H4zM6,3H7V4H6zM8,3H9V4H8zM10,3H11V4H10zM11,3H12V4H11zM12,3H13V4H12zM13,3H14V4H13zM14,3H15V4H14zM15,3H16V4H15zM17,3H18V4H17zM19,3H20V4H19zM20,3H21V4H20zM22,3H23V4H22zM24,3H25V4H24zM25,3H26V4H25zM26,3H27V4H26zM28,3H29V4H28zM0,4H1V5H0zM2,4H3V5H2zM3,4H4V5H3zM4,4H5V5H4zM6,4H7V5H6zM9,4H10V5H9zM11,4H12V5H11zM12,4H13V5H12zM15,4H16V5H15zM16,4H17V5H16zM18,4H19V5H18zM19,4H20V5H19zM22,4H23V5H22zM24,4H25V5H24zM25,4H26V5H25zM26,4H27V5H26zM28,4H29V5H28zM0,5H1V6H0zM6,5H7V6H6zM11,5H12V6H11zM12,5H13V6H12zM14,5H15V6H14zM16,5H17V6H16zM20,5H21V6H20zM22,5H23V6H22zM28,5H29V6H28zM0,6H1V7H0zM1,6H2V7H1zM2,6H3V7H2zM3,6H4V7H3zM4,6H5V7H4zM5,6H6V7H5zM6,6H7V7H6zM8,6H9V7H8zM10,6H11V7H10zM12,6H13V7H12zM14,6H15V7H14zM16,6H17V7H16zM18,6H19V7H18zM20,6H21V7H20zM22,6H23V7H22zM23,6H24V7H23zM24,6H25V7H24zM25,6H26V7H25zM26,6H27V7H26zM27,6H28V7H27zM28,6H29V7H28zM11,7H12V8H11zM12,7H13V8H12zM13,7H14V8H13zM14,7H15V8H14zM15,7H16V8H15zM17,7H18V8H17zM18,7H19V8H18zM3,8H4V9H3zM4,8H5V9H4zM6,8H7V9H6zM7,8H8V9H7zM11,8H12V9H11zM15,8H16V9H15zM25,8H26V9H25zM26,8H27V9H26zM0,9H1V10H0zM1,9H2V10H1zM2,9H3V10H2zM3,9H4V10H3zM9,9H10V10H9zM11,9H12V10H11zM12,9H13V10H12zM15,9H16V10H15zM18,9H19V10H18zM19,9H20V10H19zM21,9H22V10H21zM23,9H24V10H23zM24,9H25V10H24zM25,9H26V10H25zM27,9H28V10H27zM1,10H2V11H1zM2,10H3V11H2zM4,10H5V11H4zM6,10H7V11H6zM8,10H9V11H8zM9,10H10V11H9zM11,10H12V11H11zM16,10H17V11H16zM17,10H18V11H17zM18,10H19V11H18zM21,10H22V11H21zM22,10H23V11H22zM23,10H24V11H23zM2,11H3V12H2zM4,11H5V12H4zM5,11H6V12H5zM7,11H8V12H7zM8,11H9V12H8zM9,11H10V12H9zM10,11H11V12H10zM15,11H16V12H15zM17,11H18V12H17zM20,11H21V12H20zM25,11H26V12H25zM28,11H29V12H28zM6,12H7V13H6zM7,12H8V13H7zM8,12H9V13H8zM9,12H10V13H9zM10,12H11V13H10zM12,12H13V13H12zM13,12H14V13H13zM17,12H18V13H17zM18,12H19V13H18zM19,12H20V13H19zM20,12H21V13H20zM21,12H22V13H21zM22,12H23V13H22zM25,12H26V13H25zM27,12H28V13H27zM0,13H1V14H0zM3,13H4V14H3zM4,13H5V14H4zM7,13H8V14H7zM9,13H10V14H9zM13,13H14V14H13zM16,13H17V14H16zM18,13H19V14H18zM22,13H23V14H22zM24,13H25V14H24zM26,13H27V14H26zM28,13H29V14H28zM2,14H3V15H2zM4,14H5V15H4zM6,14H7V15H6zM7,14H8V15H7zM9,14H10V15H9zM14,14H15V15H14zM15,14H16V15H15zM19,14H20V15H19zM21,14H22V15H21zM22,14H23V15H22zM23,14H24V15H23zM25,14H26V15H25zM28,14H29V15H28zM1,15H2V16H1zM7,15H8V16H7zM9,15H10V16H9zM10,15H11V16H10zM12,15H13V16H12zM13,15H14V16H13zM16,15H17V16H16zM21,15H22V16H21zM24,15H25V16H24zM25,15H26V16H25zM26,15H27V16H26zM27,15H28V16H27zM28,15H29V16H28zM3,16H4V17H3zM6,16H7V17H6zM7,16H8V17H7zM9,16H10V17H9zM10,16H11V17H10zM13,16H14V17H13zM18,16H19V17H18zM19,16H20V17H19zM20,16H21V17H20zM23,16H24V17H23zM25,16H26V17H25zM27,16H28V17H27zM0,17H1V18H0zM1,17H2V18H1zM4,17H5V18H4zM5,17H6V18H5zM8,17H9V18H8zM10,17H11V18H10zM14,17H15V18H14zM15,17H16V18H15zM19,17H20V18H19zM20,17H21V18H20zM23,17H24V18H23zM24,17H25V18H24zM25,17H26V18H25zM0,18H1V19H0zM1,18H2V19H1zM2,18H3V19H2zM6,18H7V19H6zM7,18H8V19H7zM8,18H9V19H8zM9,18H10V19H9zM11,18H12V19H11zM12,18H13V19H12zM13,18H14V19H13zM14,18H15V19H14zM16,18H17V19H16zM17,18H18V19H17zM19,18H20V19H19zM25,18H26V19H25zM26,18H27V19H26zM28,18H29V19H28zM0,19H1V20H0zM1,19H2V20H1zM2,19H3V20H2zM3,19H4V20H3zM4,19H5V20H4zM7,19H8V20H7zM10,19H11V20H10zM12,19H13V20H12zM14,19H15V20H14zM17,19H18V20H17zM21,19H22V20H21zM22,19H23V20H22zM23,19H24V20H23zM26,19H27V20H26zM27,19H28V20H27zM28,19H29V20H28zM0,20H1V21H0zM1,20H2V21H1zM4,20H5V21H4zM6,20H7V21H6zM7,20H8V21H7zM9,20H10V21H9zM11,20H12V21H11zM12,20H13V21H12zM13,20H14V21H13zM14,20H15V21H14zM17,20H18V21H17zM18,20H19V21H18zM20,20H21V21H20zM21,20H22V21H21zM22,20H23V21H22zM23,20H24V21H23zM24,20H25V21H24zM25,20H26V21H25zM26,20H27V21H26zM28,20H29V21H28zM8,21H9V22H8zM13,21H14V22H13zM14,21H15V22H14zM15,21H16V22H15zM18,21H19V22H18zM20,21H21V22H20zM24,21H25V22H24zM25,21H26V22H25zM26,21H27V22H26zM0,22H1V23H0zM1,22H2V23H1zM2,22H3V23H2zM3,22H4V23H3zM4,22H5V23H4zM5,22H6V23H5zM6,22H7V23H6zM8,22H9V23H8zM10,22H11V23H10zM11,22H12V23H11zM12,22H13V23H12zM14,22H15V23H14zM17,22H18V23H17zM18,22H19V23H18zM19,22H20V23H19zM20,22H21V23H20zM22,22H23V23H22zM24,22H25V23H24zM26,22H27V23H26zM0,23H1V24H0zM6,23H7V24H6zM11,23H12V24H11zM12,23H13V24H12zM13,23H14V24H13zM14,23H15V24H14zM16,23H17V24H16zM19,23H20V24H19zM20,23H21V24H20zM24,23H25V24H24zM25,23H26V24H25zM27,23H28V24H27zM0,24H1V25H0zM2,24H3V25H2zM3,24H4V25H3zM4,24H5V25H4zM6,24H7V25H6zM8,24H9V25H8zM9,24H10V25H9zM16,24H17V25H16zM19,24H20V25H19zM20,24H21V25H20zM21,24H22V25H21zM22,24H23V25H22zM23,24H24V25H23zM24,24H25V25H24zM27,24H28V25H27zM0,25H1V26H0zM2,25H3V26H2zM3,25H4V26H3zM4,25H5V26H4zM6,25H7V26H6zM8,25H9V26H8zM9,25H10V26H9zM14,25H15V26H14zM15,25H16V26H15zM18,25H19V26H18zM23,25H24V26H23zM26,25H27V26H26zM27,25H28V26H27zM0,26H1V27H0zM2,26H3V27H2zM3,26H4V27H3zM4,26H5V27H4zM6,26H7V27H6zM10,26H11V27H10zM11,26H12V27H11zM12,26H13V27H12zM13,26H14V27H13zM16,26H17V27H16zM17,26H18V27H17zM18,26H19V27H18zM20,26H21V27H20zM21,26H22V27H21zM23,26H24V27H23zM24,26H25V27H24zM26,26H27V27H26zM27,26H28V27H27zM28,26H29V27H28zM0,27H1V28H0zM6,27H7V28H6zM9,27H10V28H9zM12,27H13V28H12zM13,27H14V28H13zM14,27H15V28H14zM16,27H17V28H16zM17,27H18V28H17zM18,27H19V28H18zM24,27H25V28H24zM25,27H26V28H25zM26,27H27V28H26zM28,27H29V28H28zM0,28H1V29H0zM1,28H2V29H1zM2,28H3V29H2zM3,28H4V29H3zM4,28H5V29H4zM5,28H6V29H5zM6,28H7V29H6zM9,28H10V29H9zM11,28H12V29H11zM12,28H13V29H12zM13,28H14V29H13zM14,28H15V29H14zM15,28H16V29H15zM16,28H17V29H16zM20,28H21V29H20zM22,28H23V29H22zM23,28H24V29H23zM24,28H25V29H24z" id="qr-path" fill="#1F1F1D" fill-opacity="1" fill-rule="nonzero" stroke="none" /></svg>